HIERARCHY
ROOT root
{
	OFFSET	0	13.1	24.9
	CHANNELS 6  Xposition Yposition Zposition Xrotation Yrotation Zrotation
	JOINT spine_1
	{
		OFFSET	0	9.99999	0
		CHANNELS 3  Xrotation Yrotation Zrotation
		JOINT spine_2
		{
			OFFSET	0	112	-10
			CHANNELS 3  Xrotation Yrotation Zrotation
			JOINT spine_3
			{
				OFFSET	0	206.5	19.3
				CHANNELS 3  Xrotation Yrotation Zrotation
				JOINT spine_4
				{
					OFFSET	0	110.4	14.6
					CHANNELS 3  Xrotation Yrotation Zrotation
					JOINT neck_1
					{
						OFFSET	0	71.8	-50.3
						CHANNELS 3  Xrotation Yrotation Zrotation
						JOINT neck_2
						{
							OFFSET	0	86.2	-25.8
							CHANNELS 3  Xrotation Yrotation Zrotation
							JOINT head_ee
							{
								OFFSET	0	179.8	-8.7
								CHANNELS 3  Xrotation Yrotation Zrotation
								End Site
								{
									OFFSET	1	0	0
								}
							}
						}
					}
					JOINT left_clavicle
					{
						OFFSET	-43.2	22.4	-70.8
						CHANNELS 3  Xrotation Yrotation Zrotation
						JOINT left_shoulder
						{
							OFFSET	-93.9	-5.79999	48.7
							CHANNELS 3  Xrotation Yrotation Zrotation
							JOINT left_elbow
							{
								OFFSET	-291.4	-30.8	15.2
								CHANNELS 3  Xrotation Yrotation Zrotation
								JOINT left_lowarm_twist
								{
									OFFSET	-110.7	-3.89999	13.6
									CHANNELS 3  Xrotation Yrotation Zrotation
									JOINT left_hand
									{
										OFFSET	-110.7	-3.89999	13.6
										CHANNELS 3  Xrotation Yrotation Zrotation
										JOINT left_ee
										{
											OFFSET	-80.8	-5.10001	12.1
											CHANNELS 3  Xrotation Yrotation Zrotation
											End Site
											{
												OFFSET	1	0	0
											}
										}
									}
								}
							}
						}
					}
					JOINT right_clavicle
					{
						OFFSET	43.2	22.4	-70.8
						CHANNELS 3  Xrotation Yrotation Zrotation
						JOINT right_shoulder
						{
							OFFSET	93.9	-5.79999	48.7
							CHANNELS 3  Xrotation Yrotation Zrotation
							JOINT right_elbow
							{
								OFFSET	291.4	-30.8	15.2
								CHANNELS 3  Xrotation Yrotation Zrotation
								JOINT right_lowarm_twist
								{
									OFFSET	110.7	-3.89999	13.6
									CHANNELS 3  Xrotation Yrotation Zrotation
									JOINT right_hand
									{
										OFFSET	110.7	-3.89999	13.6
										CHANNELS 3  Xrotation Yrotation Zrotation
										JOINT right_ee
										{
											OFFSET	80.8	-5.10001	12.1
											CHANNELS 3  Xrotation Yrotation Zrotation
											End Site
											{
												OFFSET	1	0	0
											}
										}
									}
								}
							}
						}
					}
				}
			}
		}
	}
	JOINT left_hip
	{
		OFFSET	-82.8	-127.5	0.300001
		CHANNELS 3  Xrotation Yrotation Zrotation
		JOINT left_knee
		{
			OFFSET	-28.2	-396.7	2.2
			CHANNELS 3  Xrotation Yrotation Zrotation
			JOINT left_ankle
			{
				OFFSET	-11.7	-411.3	35.4
				CHANNELS 3  Xrotation Yrotation Zrotation
				JOINT left_toes
				{
					OFFSET	0	-60	-88.6
					CHANNELS 3  Xrotation Yrotation Zrotation
					JOINT left_foot_ee
					{
						OFFSET	-22.5	-16.5	-42.2
						CHANNELS 3  Xrotation Yrotation Zrotation
						End Site
						{
							OFFSET	1	0	0
						}
					}
				}
			}
		}
	}
	JOINT right_hip
	{
		OFFSET	82.8	-127.5	0.300001
		CHANNELS 3  Xrotation Yrotation Zrotation
		JOINT right_knee
		{
			OFFSET	28.2	-396.7	2.2
			CHANNELS 3  Xrotation Yrotation Zrotation
			JOINT right_ankle
			{
				OFFSET	11.7	-411.3	35.4
				CHANNELS 3  Xrotation Yrotation Zrotation
				JOINT right_toes
				{
					OFFSET	0	-60	-88.6
					CHANNELS 3  Xrotation Yrotation Zrotation
					JOINT right_foot_ee
					{
						OFFSET	22.5	-16.5	-42.2
						CHANNELS 3  Xrotation Yrotation Zrotation
						End Site
						{
							OFFSET	1	0	0
						}
					}
				}
			}
		}
	}
}
MOTION
Frames: 8
Frame Time: 0.02
2467.25984896 722.315 -1464.7341381 -13.918925931 82.4076999506 4.28775620466 3.0289 1.13986 5.02652 3.04257 0.818127 5.08864 3.11115 0.0112266 5.1538 3.07504 0.823964 5.0877 -9.19506 15.988 -7.99506 -9.2898 35.4356 -3.95147 -0.0 0.0 -0.0 -9.37956 24.5585 -9.96176 -26.3171 -16.7858 73.2357 0.836452 -22.5067 0.166434 -33.0493 -2.24409 3.5181 1.44661 14.001 14.9567 -0.0 0.0 -0.0 13.4108 26.3873 -26.5817 3.3613 12.8836 -72.4971 1.85589 42.5897 -0.723441 17.0075 -0.282564 2.14622 2.55493 3.22692 -16.0259 0.0 0.0 0.0 10.3334 24.7543 -2.51271 -47.8049 -1.03641 7.05416 40.6814 9.61172 -4.93295 -40.2192 0.0 0.0 -0.0 0.0 -0.0 12.1627 22.231 -0.545152 -12.11 -0.306208 -1.82979 40.9644 -8.27141 4.94902 -40.0358 0.0 0.0 0.0 0.0 0.0 
2464.56160815 725.901 -1461.79156964 -13.8953348821 84.2283706477 4.64723757701 3.04548 1.00264 5.0068 3.05916 0.682434 5.06026 3.1152 -0.118524 5.10458 3.07952 0.688085 5.0595 -9.47896 15.848 -7.04048 -9.65388 34.5335 -2.93345 -0.0 0.0 -0.0 -9.48632 24.1405 -10.2856 -26.3352 -17.1127 73.4134 0.77245 -20.9392 0.142744 -31.6015 -2.10544 3.3946 1.8639 12.736 17.2666 -0.0 0.0 -0.0 13.6679 26.1983 -27.2029 3.83385 13.208 -71.3065 2.03534 45.23 -0.847927 18.6365 -0.275961 2.35417 3.07422 7.94404 -17.655 0.0 0.0 0.0 11.3634 25.9269 -3.55042 -46.3853 -0.922126 6.86794 35.9383 9.37107 -4.49902 -40.1642 0.0 0.0 -0.0 0.0 -0.0 11.563 22.0517 -0.904606 -11.6216 -0.301386 -1.755 40.5511 -11.9544 4.94232 -40.1732 0.0 0.0 0.0 0.0 0.0 
2461.28718639 727.083 -1460.44981966 -22.9704094653 85.7140138755 14.3086090978 2.90026 0.808736 4.9833 2.91394 0.490406 5.02452 2.95317 -0.317606 5.03836 2.91808 0.481065 5.02542 -10.2973 15.5848 -7.71595 -10.5649 34.4874 -3.38137 -0.0 0.0 -0.0 -9.73236 23.8814 -10.7503 -26.6407 -17.2426 73.4558 0.878254 -23.5117 0.182774 -30.8613 -2.03577 3.33012 1.99605 12.8494 18.1842 -0.0 0.0 -0.0 13.2674 26.1168 -26.282 3.73602 13.5837 -71.2237 2.48885 50.9466 -1.18584 18.5024 -0.276727 2.33707 3.24035 8.9413 -18.3835 0.0 0.0 0.0 13.8969 27.5165 -5.50621 -36.02 -0.233169 5.43308 27.5455 7.39261 -3.62061 -39.7365 0.0 0.0 -0.0 0.0 -0.0 10.7421 21.7186 -1.24197 -8.31032 -0.251914 -1.24939 39.574 -15.7639 4.90608 -40.1681 0.0 0.0 0.0 0.0 0.0 
2457.93285185 727.684 -1453.97910272 -32.658631278 86.4033697041 24.5563689732 2.89948 0.801261 4.99294 2.91321 0.482336 5.03367 2.95179 -0.327189 5.0461 2.91659 0.472818 5.03457 -8.48168 14.8052 -8.78825 -8.38309 33.7702 -5.31698 -0.0 0.0 -0.0 -9.68445 23.3167 -10.9142 -26.5494 -17.2515 74.2968 0.867579 -23.2565 0.178537 -31.094 -2.05758 3.35048 2.31944 12.6835 20.3047 -0.0 0.0 -0.0 13.443 25.7519 -26.7332 3.59417 11.8397 -69.9815 2.81184 54.3143 -1.44265 19.1091 -0.272939 2.41446 3.28922 11.4049 -17.5912 0.0 0.0 0.0 13.2204 26.7836 -4.20076 -24.7655 0.208718 3.76525 28.0704 6.79429 -3.67842 -38.2061 0.0 0.0 -0.0 0.0 -0.0 10.525 21.4818 -1.67821 -7.01512 -0.224624 -1.05251 40.241 -19.3227 5.03522 -40.1707 0.0 0.0 0.0 0.0 0.0 
2406.44501026 734.048 -1497.90788874 -17.2775710945 71.5621892599 10.940753758 3.02549 0.629719 3.92991 3.034 0.378574 3.96194 3.05754 -0.251176 3.97204 3.03573 0.378781 3.96192 -2.70775 14.2084 -4.84576 -2.13425 29.5595 -3.17198 -0.0 0.0 -0.0 -9.19193 21.9797 -10.715 -9.32113 -20.061 75.999 0.854926 -22.9527 0.173572 -24.839 -1.50125 2.77351 3.30879 14.6354 27.7812 -0.0 0.0 -0.0 13.7358 25.508 -27.4443 -0.954901 3.57869 -70.3402 1.50043 36.62 -0.496536 13.5067 -0.276743 1.69918 3.62619 20.1653 -15.5881 0.0 0.0 0.0 9.43072 30.6336 -1.9581 -16.5229 0.320832 2.50654 34.3281 -4.70241 -4.40393 -35.1165 0.0 0.0 -0.0 0.0 -0.0 15.2258 28.0976 -2.43944 -13.8225 -0.318073 -2.09227 40.1168 -18.9042 5.01466 -39.4002 0.0 0.0 0.0 0.0 0.0 
2406.32590812 734.048 -1495.87549908 -17.5446501885 71.8438032557 11.2220539994 3.02549 0.629719 3.92991 3.034 0.378574 3.96194 3.05754 -0.251176 3.97204 3.03573 0.378781 3.96192 -2.70775 14.2084 -4.84576 -2.13425 29.5595 -3.17198 -0.0 0.0 -0.0 -9.19193 21.9797 -10.715 -9.32113 -20.061 75.999 0.854926 -22.9527 0.173572 -24.839 -1.50125 2.77351 3.30879 14.6354 27.7812 -0.0 0.0 -0.0 13.7358 25.508 -27.4443 -0.954901 3.57869 -70.3402 1.50043 36.62 -0.496536 13.5067 -0.276743 1.69918 3.62619 20.1653 -15.5881 0.0 0.0 0.0 9.43072 30.6336 -1.9581 -16.5229 0.320832 2.50654 34.3281 -4.70241 -4.40393 -35.1165 0.0 0.0 -0.0 0.0 -0.0 15.2258 28.0976 -2.43944 -13.8225 -0.318073 -2.09227 40.1168 -18.9042 5.01466 -39.4002 0.0 0.0 0.0 0.0 0.0 
2406.1809357 734.048 -1493.11465695 -17.9211222597 72.2255466744 11.617820064 3.02549 0.629719 3.92991 3.034 0.378574 3.96194 3.05754 -0.251176 3.97204 3.03573 0.378781 3.96192 -2.70775 14.2084 -4.84576 -2.13425 29.5595 -3.17198 -0.0 0.0 -0.0 -9.19193 21.9797 -10.715 -9.32113 -20.061 75.999 0.854926 -22.9527 0.173572 -24.839 -1.50125 2.77351 3.30879 14.6354 27.7812 -0.0 0.0 -0.0 13.7358 25.508 -27.4443 -0.954901 3.57869 -70.3402 1.50043 36.62 -0.496536 13.5067 -0.276743 1.69918 3.62619 20.1653 -15.5881 0.0 0.0 0.0 9.43072 30.6336 -1.9581 -16.5229 0.320832 2.50654 34.3281 -4.70241 -4.40393 -35.1165 0.0 0.0 -0.0 0.0 -0.0 15.2258 28.0976 -2.43944 -13.8225 -0.318073 -2.09227 40.1168 -18.9042 5.01466 -39.4002 0.0 0.0 0.0 0.0 0.0 
2405.96876812 734.048 -1488.14569422 -18.6414104136 72.9101685918 12.3727673293 3.02549 0.629719 3.92991 3.034 0.378574 3.96194 3.05754 -0.251176 3.97204 3.03573 0.378781 3.96192 -2.70775 14.2084 -4.84576 -2.13425 29.5595 -3.17198 -0.0 0.0 -0.0 -9.19193 21.9797 -10.715 -9.32113 -20.061 75.999 0.854926 -22.9527 0.173572 -24.839 -1.50125 2.77351 3.30879 14.6354 27.7812 -0.0 0.0 -0.0 13.7358 25.508 -27.4443 -0.954901 3.57869 -70.3402 1.50043 36.62 -0.496536 13.5067 -0.276743 1.69918 3.62619 20.1653 -15.5881 0.0 0.0 0.0 9.43072 30.6336 -1.9581 -16.5229 0.320832 2.50654 34.3281 -4.70241 -4.40393 -35.1165 0.0 0.0 -0.0 0.0 -0.0 15.2258 28.0976 -2.43944 -13.8225 -0.318073 -2.09227 40.1168 -18.9042 5.01466 -39.4002 0.0 0.0 0.0 0.0 0.0 
